<svg xmlns="http://www.w3.org/2000/svg" xmlns:xlink="http://www.w3.org/1999/xlink" contentStyleType="text/css" data-diagram-type="CLASS" height="617px" preserveAspectRatio="none" style="width:506px;height:617px;background:#1B1B1B;" version="1.1" viewBox="0 0 506 617" width="506px" zoomAndPan="magnify"><defs/><g><rect fill="#1B1B1B" height="617" style="stroke:none;stroke-width:1;" width="506" x="0" y="0"/><!--class Libro--><g class="entity" data-entity="Libro" data-source-line="4" data-uid="ent0002" id="entity_Libro"><rect fill="#313139" height="162.0781" rx="2.5" ry="2.5" style="stroke:#E7E7E7;stroke-width:0.5;" width="222.1436" x="7" y="448.56"/><ellipse cx="96.373" cy="464.56" fill="#2E5233" rx="11" ry="11" style="stroke:#E7E7E7;stroke-width:1;"/><path d="M99.3418,470.2006 Q98.7637,470.4975 98.123,470.6381 Q97.4824,470.7944 96.7793,470.7944 Q94.2793,470.7944 92.9512,469.1537 Q91.6387,467.4975 91.6387,464.3725 Q91.6387,461.2475 92.9512,459.5912 Q94.2793,457.935 96.7793,457.935 Q97.4824,457.935 98.123,458.0912 Q98.7793,458.2475 99.3418,458.5444 L99.3418,461.2631 Q98.7168,460.685 98.123,460.4194 Q97.5293,460.1381 96.9043,460.1381 Q95.5605,460.1381 94.873,461.2162 Q94.1855,462.2787 94.1855,464.3725 Q94.1855,466.4662 94.873,467.5444 Q95.5605,468.6069 96.9043,468.6069 Q97.5293,468.6069 98.123,468.3412 Q98.7168,468.06 99.3418,467.4819 L99.3418,470.2006 Z " fill="#FFFFFF"/><text fill="#FFFFFF" font-family="sans-serif" font-size="14" lengthAdjust="spacing" textLength="34.8975" x="116.873" y="469.4067">Libro</text><line style="stroke:#E7E7E7;stroke-width:0.5;" x1="8" x2="228.1436" y1="480.56" y2="480.56"/><text fill="#FFFFFF" font-family="sans-serif" font-size="14" lengthAdjust="spacing" textLength="67.7988" x="13" y="497.5551">+id: Long</text><text fill="#FFFFFF" font-family="sans-serif" font-size="14" lengthAdjust="spacing" textLength="98.875" x="13" y="513.852">+titulo: String</text><text fill="#FFFFFF" font-family="sans-serif" font-size="14" lengthAdjust="spacing" textLength="99.9414" x="13" y="530.1489">+autor: String</text><text fill="#FFFFFF" font-family="sans-serif" font-size="14" lengthAdjust="spacing" textLength="91.6221" x="13" y="546.4457">+isbn: String</text><text fill="#FFFFFF" font-family="sans-serif" font-size="14" lengthAdjust="spacing" textLength="142.7275" x="13" y="562.7426">+descripcion: String</text><text fill="#FFFFFF" font-family="sans-serif" font-size="14" lengthAdjust="spacing" textLength="176.5586" x="13" y="579.0395">+a&#241;oPublicacion: Integer</text><text fill="#FFFFFF" font-family="sans-serif" font-size="14" lengthAdjust="spacing" textLength="210.1436" x="13" y="595.3364">+cantidadEjemplares: Integer</text><line style="stroke:#E7E7E7;stroke-width:0.5;" x1="8" x2="228.1436" y1="602.6381" y2="602.6381"/></g><!--class Usuario--><g class="entity" data-entity="Usuario" data-source-line="14" data-uid="ent0003" id="entity_Usuario"><rect fill="#313139" height="145.7813" rx="2.5" ry="2.5" style="stroke:#E7E7E7;stroke-width:0.5;" width="138.5469" x="326.8" y="456.71"/><ellipse cx="365.8042" cy="472.71" fill="#2E5233" rx="11" ry="11" style="stroke:#E7E7E7;stroke-width:1;"/><path d="M368.773,478.3506 Q368.1949,478.6475 367.5542,478.7881 Q366.9136,478.9444 366.2105,478.9444 Q363.7105,478.9444 362.3824,477.3038 Q361.0699,475.6475 361.0699,472.5225 Q361.0699,469.3975 362.3824,467.7413 Q363.7105,466.085 366.2105,466.085 Q366.9136,466.085 367.5542,466.2413 Q368.2105,466.3975 368.773,466.6944 L368.773,469.4131 Q368.148,468.835 367.5542,468.5694 Q366.9605,468.2881 366.3355,468.2881 Q364.9917,468.2881 364.3042,469.3663 Q363.6167,470.4288 363.6167,472.5225 Q363.6167,474.6163 364.3042,475.6944 Q364.9917,476.7569 366.3355,476.7569 Q366.9605,476.7569 367.5542,476.4913 Q368.148,476.21 368.773,475.6319 L368.773,478.3506 Z " fill="#FFFFFF"/><text fill="#FFFFFF" font-family="sans-serif" font-size="14" lengthAdjust="spacing" textLength="53.2041" x="385.1385" y="477.5567">Usuario</text><line style="stroke:#E7E7E7;stroke-width:0.5;" x1="327.8" x2="464.3469" y1="488.71" y2="488.71"/><text fill="#FFFFFF" font-family="sans-serif" font-size="14" lengthAdjust="spacing" textLength="67.7988" x="332.8" y="505.7051">+id: Long</text><text fill="#FFFFFF" font-family="sans-serif" font-size="14" lengthAdjust="spacing" textLength="117.0107" x="332.8" y="522.002">+nombre: String</text><text fill="#FFFFFF" font-family="sans-serif" font-size="14" lengthAdjust="spacing" textLength="117.8789" x="332.8" y="538.2989">+apellido: String</text><text fill="#FFFFFF" font-family="sans-serif" font-size="14" lengthAdjust="spacing" textLength="107.6318" x="332.8" y="554.5957">+correo: String</text><text fill="#FFFFFF" font-family="sans-serif" font-size="14" lengthAdjust="spacing" textLength="120.2168" x="332.8" y="570.8926">+telefono: String</text><text fill="#FFFFFF" font-family="sans-serif" font-size="14" lengthAdjust="spacing" textLength="126.5469" x="332.8" y="587.1895">+direccion: String</text><line style="stroke:#E7E7E7;stroke-width:0.5;" x1="327.8" x2="464.3469" y1="594.4913" y2="594.4913"/></g><!--class Prestamo--><g class="entity" data-entity="Prestamo" data-source-line="23" data-uid="ent0004" id="entity_Prestamo"><rect fill="#313139" height="141.7813" rx="2.5" ry="2.5" style="stroke:#E7E7E7;stroke-width:0.5;" width="219.6143" x="170.26" y="229.78"/><ellipse cx="242.6287" cy="245.78" fill="#2E5233" rx="11" ry="11" style="stroke:#E7E7E7;stroke-width:1;"/><path d="M245.5974,251.4206 Q245.0193,251.7175 244.3787,251.8581 Q243.738,252.0144 243.0349,252.0144 Q240.5349,252.0144 239.2068,250.3737 Q237.8943,248.7175 237.8943,245.5925 Q237.8943,242.4675 239.2068,240.8112 Q240.5349,239.155 243.0349,239.155 Q243.738,239.155 244.3787,239.3112 Q245.0349,239.4675 245.5974,239.7644 L245.5974,242.4831 Q244.9724,241.905 244.3787,241.6394 Q243.7849,241.3581 243.1599,241.3581 Q241.8162,241.3581 241.1287,242.4362 Q240.4412,243.4987 240.4412,245.5925 Q240.4412,247.6862 241.1287,248.7644 Q241.8162,249.8269 243.1599,249.8269 Q243.7849,249.8269 244.3787,249.5612 Q244.9724,249.28 245.5974,248.7019 L245.5974,251.4206 Z " fill="#FFFFFF"/><text fill="#FFFFFF" font-family="sans-serif" font-size="14" lengthAdjust="spacing" textLength="66.377" x="263.1287" y="250.6267">Prestamo</text><line style="stroke:#E7E7E7;stroke-width:0.5;" x1="171.26" x2="388.8743" y1="261.78" y2="261.78"/><text fill="#FFFFFF" font-family="sans-serif" font-size="14" lengthAdjust="spacing" textLength="67.7988" x="176.26" y="278.7751">+id: Long</text><text fill="#FFFFFF" font-family="sans-serif" font-size="14" lengthAdjust="spacing" textLength="195.959" x="176.26" y="295.072">+fechaPrestamo: LocalDate</text><text fill="#FFFFFF" font-family="sans-serif" font-size="14" lengthAdjust="spacing" textLength="207.6143" x="176.26" y="311.3689">+fechaDevolucion: LocalDate</text><text fill="#FFFFFF" font-family="sans-serif" font-size="14" lengthAdjust="spacing" textLength="86.7822" x="176.26" y="347.9626">+libro: Libro</text><text fill="#FFFFFF" font-family="sans-serif" font-size="14" lengthAdjust="spacing" textLength="125.9316" x="176.26" y="364.2595">+usuario: Usuario</text><line style="stroke:#E7E7E7;stroke-width:1;" x1="171.26" x2="242.196" y1="326.8191" y2="326.8191"/><text fill="#FFFFFF" font-family="sans-serif" font-size="14" lengthAdjust="spacing" textLength="75.7422" x="242.196" y="331.1657">Relaciones</text><line style="stroke:#E7E7E7;stroke-width:1;" x1="317.9382" x2="388.8743" y1="326.8191" y2="326.8191"/></g><!--class GestorBiblioteca--><g class="entity" data-entity="GestorBiblioteca" data-source-line="33" data-uid="ent0005" id="entity_GestorBiblioteca"><rect fill="#313139" height="145.7813" rx="2.5" ry="2.5" style="stroke:#E7E7E7;stroke-width:0.5;" width="395.2295" x="82.46" y="7"/><ellipse cx="217.9893" cy="23" fill="#2E5233" rx="11" ry="11" style="stroke:#E7E7E7;stroke-width:1;"/><path d="M220.958,28.6406 Q220.3799,28.9375 219.7393,29.0781 Q219.0987,29.2344 218.3955,29.2344 Q215.8955,29.2344 214.5674,27.5938 Q213.2549,25.9375 213.2549,22.8125 Q213.2549,19.6875 214.5674,18.0313 Q215.8955,16.375 218.3955,16.375 Q219.0987,16.375 219.7393,16.5313 Q220.3955,16.6875 220.958,16.9844 L220.958,19.7031 Q220.333,19.125 219.7393,18.8594 Q219.1455,18.5781 218.5205,18.5781 Q217.1768,18.5781 216.4893,19.6563 Q215.8018,20.7188 215.8018,22.8125 Q215.8018,24.9063 216.4893,25.9844 Q217.1768,27.0469 218.5205,27.0469 Q219.1455,27.0469 219.7393,26.7813 Q220.333,26.5 220.958,25.9219 L220.958,28.6406 Z " fill="#FFFFFF"/><text fill="#FFFFFF" font-family="sans-serif" font-size="14" lengthAdjust="spacing" textLength="115.6709" x="238.4893" y="27.8467">GestorBiblioteca</text><line style="stroke:#E7E7E7;stroke-width:0.5;" x1="83.46" x2="476.6895" y1="39" y2="39"/><line style="stroke:#E7E7E7;stroke-width:0.5;" x1="83.46" x2="476.6895" y1="47" y2="47"/><text fill="#FFFFFF" font-family="sans-serif" font-size="14" lengthAdjust="spacing" textLength="192.623" x="88.46" y="63.9951">+registrarLibro(libro: Libro)</text><text fill="#FFFFFF" font-family="sans-serif" font-size="14" lengthAdjust="spacing" textLength="250.0791" x="88.46" y="80.292">+registrarUsuario(usuario: Usuario)</text><text fill="#FFFFFF" font-family="sans-serif" font-size="14" lengthAdjust="spacing" textLength="339.5957" x="88.46" y="96.5889">+realizarPrestamo(libro: Libro, usuario: Usuario)</text><text fill="#FFFFFF" font-family="sans-serif" font-size="14" lengthAdjust="spacing" textLength="303.0713" x="88.46" y="112.8857">+registrarDevolucion(prestamo: Prestamo)</text><text fill="#FFFFFF" font-family="sans-serif" font-size="14" lengthAdjust="spacing" textLength="283.7803" x="88.46" y="129.1826">+buscarLibro(titulo: String): List&lt;Libro&gt;</text><text fill="#FFFFFF" font-family="sans-serif" font-size="14" lengthAdjust="spacing" textLength="383.2295" x="88.46" y="145.4795">+consultarHistorial(usuario: Usuario): List&lt;Prestamo&gt;</text></g><!--link Prestamo to Libro--><g class="link" data-entity-1="Prestamo" data-entity-2="Libro" data-source-line="43" data-uid="lnk6" id="link_Prestamo_Libro"><path codeLine="43" d="M229.92,371.92 C212.64,396.13 193.15,423.43 175.34,448.38" fill="none" id="Prestamo-Libro" style="stroke:#E7E7E7;stroke-width:1;"/><text fill="#FFFFFF" font-family="sans-serif" font-size="13" lengthAdjust="spacing" textLength="56.2847" x="205.07" y="414.6269">contiene</text><text fill="#FFFFFF" font-family="sans-serif" font-size="13" lengthAdjust="spacing" textLength="36.5625" x="187.2395" y="391.7453">many</text><text fill="#FFFFFF" font-family="sans-serif" font-size="13" lengthAdjust="spacing" textLength="8.271" x="172.0963" y="437.5513">1</text></g><!--link Prestamo to Usuario--><g class="link" data-entity-1="Prestamo" data-entity-2="Usuario" data-source-line="44" data-uid="lnk7" id="link_Prestamo_Usuario"><path codeLine="44" d="M315.98,371.92 C329.69,398.73 345.33,429.34 359.13,456.33" fill="none" id="Prestamo-Usuario" style="stroke:#E7E7E7;stroke-width:1;"/><text fill="#FFFFFF" font-family="sans-serif" font-size="13" lengthAdjust="spacing" textLength="87.5786" x="339.07" y="414.6269">realizado_por</text><text fill="#FFFFFF" font-family="sans-serif" font-size="13" lengthAdjust="spacing" textLength="36.5625" x="281.771" y="391.7453">many</text><text fill="#FFFFFF" font-family="sans-serif" font-size="13" lengthAdjust="spacing" textLength="8.271" x="347.2405" y="445.7048">1</text></g><!--link GestorBiblioteca to Libro--><g class="link" data-entity-1="GestorBiblioteca" data-entity-2="Libro" data-source-line="47" data-uid="lnk8" id="link_GestorBiblioteca_Libro"><path codeLine="47" d="M158.82,153.18 C133.51,174.45 110.23,200.11 96.07,229.78 C63.42,298.21 75.08,385.58 91.18,448.14" fill="none" id="GestorBiblioteca-Libro" style="stroke:#E7E7E7;stroke-width:1;"/><text fill="#FFFFFF" font-family="sans-serif" font-size="13" lengthAdjust="spacing" textLength="55.8911" x="97.07" y="305.2369">gestiona</text><text fill="#FFFFFF" font-family="sans-serif" font-size="13" lengthAdjust="spacing" textLength="8.271" x="138.8946" y="172.9535">1</text><text fill="#FFFFFF" font-family="sans-serif" font-size="13" lengthAdjust="spacing" textLength="36.5625" x="51.3463" y="437.5677">many</text></g><!--link GestorBiblioteca to Usuario--><g class="link" data-entity-1="GestorBiblioteca" data-entity-2="Usuario" data-source-line="48" data-uid="lnk9" id="link_GestorBiblioteca_Usuario"><path codeLine="48" d="M355.47,153.28 C375.14,175.99 394.36,202.34 407.07,229.78 C442.73,306.74 449.45,334.97 435.07,418.56 C432.92,431.05 429.5,443.99 425.55,456.43" fill="none" id="GestorBiblioteca-Usuario" style="stroke:#E7E7E7;stroke-width:1;"/><text fill="#FFFFFF" font-family="sans-serif" font-size="13" lengthAdjust="spacing" textLength="55.8911" x="443.07" y="305.2369">gestiona</text><text fill="#FFFFFF" font-family="sans-serif" font-size="13" lengthAdjust="spacing" textLength="8.271" x="354.0642" y="172.81">1</text><text fill="#FFFFFF" font-family="sans-serif" font-size="13" lengthAdjust="spacing" textLength="36.5625" x="390.7074" y="445.5624">many</text></g><!--link GestorBiblioteca to Prestamo--><g class="link" data-entity-1="GestorBiblioteca" data-entity-2="Prestamo" data-source-line="49" data-uid="lnk10" id="link_GestorBiblioteca_Prestamo"><path codeLine="49" d="M280.07,153.13 C280.07,177.65 280.07,205 280.07,229.36" fill="none" id="GestorBiblioteca-Prestamo" style="stroke:#E7E7E7;stroke-width:1;"/><text fill="#FFFFFF" font-family="sans-serif" font-size="13" lengthAdjust="spacing" textLength="55.8911" x="281.07" y="195.8469">gestiona</text><text fill="#FFFFFF" font-family="sans-serif" font-size="13" lengthAdjust="spacing" textLength="8.271" x="271.7012" y="172.8987">1</text><text fill="#FFFFFF" font-family="sans-serif" font-size="13" lengthAdjust="spacing" textLength="36.5625" x="242.3261" y="218.6755">many</text></g><!--SRC=[ZLJ1RjD04BtxArQ-D164mjL25MbIGQLML0JEQBoUc2dh7RExZaGH7uNw2VsnxjfUEt68m8V8cNapy_RDMzllf6imK0cfmDgbSuRonk6rPBsX1nIla-HCh75BcYGzFMfHe5XvA5h_fiGj-rzEsc9nGxbXyIiH_daXgCZ43Uko_-l8DOepiV4JXY0qZiqaHZRNar21LXgg9V4q0qz_-Ax95KdeijVQOOccJqlGZWeehkwngXKOj2FYTzBJ_c8RC7IIkEOgDpYTMwDIL4pF8zaOd0OTAjoodeOBCYWFZZGmklD47LGdAMrHVeC82Xa9QWqEzzDhtB5gklw7WCL2V4BLwkMtk5ZqLIfiB-kMs8UQJfaiIXGOddNh3pvuxmcqdfYjM3l32WesvniqE-yLdek5kFhHq0uKUia5YFII_AROeOHKe1RUFzWk9XeeD6GpeeRp6op9EWEcPJVRfpgVGdgkiodv4GYA7i14_GwwlHIdo_h-ex2pUbX1R1RHUMDbP7le_7cOPDtRDdSn-4RRHZam7oWeGA2EwVTrST95juozJVgDB2rBWkwYpYx1GW4sAEtL5Q3PHUYxMz0_F_D7ZI4RMxwwXntCay5zQULHQV1B-YRjRtSMk3f2ZQTmyJfbKUc2lzPiZickkAhPTf-LysNf1VuhSw6U7aj_lqD9sJjkdXnP9OmE33ekaMnRm1h-XHz9_s_5SFgnv1a0]--></g></svg>